<svg xmlns="http://www.w3.org/2000/svg" width="1024" height="1024" xmlns:v="https://vecta.io/nano"><path d="M538.952 719.847c32.54-4.147 59.554-19.353 78.587-42.699l20.414 17.356c5.679 4.761 13.047 5.376 17.805-.307 4.605-5.683 2.916-13.055-2.763-17.663l-22.409-18.892c10.898-20.274 17.037-44.542 17.498-71.574l26.4.154c7.674 0 12.74-4.761 12.74-11.827 0-6.912-5.065-11.673-12.586-11.673l-28.089-.154c-2.609-20.428-9.056-42.238-18.265-58.365l24.251-20.428c5.526-4.608 7.368-12.134 2.763-17.663-4.605-5.683-12.126-5.069-17.805-.307l-23.637 19.967c-8.749-7.219-14.275-7.219-19.647-4.915-22.716 10.137-51.419 16.588-81.043 16.588-29.47 0-58.173-6.451-80.889-16.588-5.372-2.304-10.898-2.304-19.647 4.915l-23.637-19.967c-5.679-4.761-13.2-5.376-17.805.307-4.605 5.529-2.763 13.055 2.763 17.663l24.251 20.428c-9.209 16.127-15.656 37.938-18.419 58.365l-27.935.154c-7.674 0-12.586 4.761-12.586 11.673 0 7.065 4.912 11.827 12.74 11.827l26.4-.154c.46 27.032 6.6 51.3 17.498 71.574l-22.563 18.892c-5.526 4.608-7.214 11.98-2.609 17.663 4.758 5.683 11.972 5.069 17.805.307l20.414-17.356c19.033 23.346 46.047 38.552 78.587 42.699 10.437 1.229 15.656-2.457 15.656-10.444V534.613a9.96 9.96 0 0 1 9.977-9.984c5.526 0 10.13 4.454 10.13 9.984v174.789c0 7.987 5.219 11.673 15.656 10.444zm-86.386-163.975c-10.801 0-19.472-9.092-19.472-19.548 0-10.759 8.671-19.548 19.472-19.548s19.624 8.789 19.624 19.548c0 10.608-8.823 19.548-19.624 19.548zm121.352 0c-10.801 0-19.624-8.941-19.624-19.548 0-10.759 8.823-19.548 19.624-19.548s19.472 8.789 19.472 19.548c0 10.456-8.671 19.548-19.472 19.548zm-136.915 62.555c-12.98 0-23.458-10.478-23.458-23.614 0-12.824 10.478-23.302 23.458-23.302 12.824 0 23.458 10.478 23.458 23.302 0 13.137-10.634 23.614-23.458 23.614zm152.477 0c-12.824 0-23.458-10.478-23.458-23.614 0-12.824 10.634-23.302 23.458-23.302 12.98 0 23.458 10.478 23.458 23.302 0 13.137-10.478 23.614-23.458 23.614zm-136.927 58.645c-10.791 0-19.46-6.966-19.46-15.639s8.669-15.639 19.46-15.639c10.968 0 19.637 6.966 19.637 15.639s-8.669 15.639-19.637 15.639zm121.377 0c-10.968 0-19.637-6.966-19.637-15.639s8.669-15.639 19.637-15.639c10.791 0 19.46 6.966 19.46 15.639s-8.669 15.639-19.46 15.639z"/></svg>