<svg xmlns="http://www.w3.org/2000/svg" width="1024" height="1024" xmlns:v="https://vecta.io/nano"><path d="M512.893 139.185c35.316 0 64.078 28.398 64.806 64.078h44.782c15.655 0 25.485 8.738 25.485 24.393v17.039c0 15.291-9.83 24.393-25.485 24.393H403.305c-15.655 0-25.485-9.102-25.485-24.393v-17.039c0-15.655 9.83-24.393 25.485-24.393h44.782c.728-35.68 29.49-64.078 64.806-64.078zm0 30.583c-18.932 0-33.495 14.927-33.495 33.495 0 18.204 14.563 33.495 33.495 33.495 18.568 0 33.495-15.291 33.495-33.495a33.41 33.41 0 0 0-33.495-33.495z"/></svg>