<svg xmlns="http://www.w3.org/2000/svg" width="1024" height="1024" xmlns:v="https://vecta.io/nano"><path d="M709.131 858.005c64.078 0 97.937-35.102 97.937-99.544V320.495c0-64.078-33.495-97.937-97.209-97.937h-14.975c-8.821 0-15.972 7.151-15.972 15.972h0 0c0 8.82 7.15 15.97 15.97 15.97h14.248 0c46.602 0 65.995 20.121 65.995 67.087v435.782c0 47.33-19.757 67.087-67.451 67.087H318.111c-47.694 0-67.451-19.757-67.451-67.087V321.587c0-46.966 19.393-67.087 65.995-67.087h14.274c8.806 0 15.945-7.139 15.945-15.945v-.025c0-8.821-7.151-15.972-15.972-15.972h-15.339 0c-63.714 0-96.845 33.859-96.845 97.937v437.966c0 64.442 33.495 98.301 97.937 98.301l392.476 1.243z"/></svg>