<svg xmlns="http://www.w3.org/2000/svg" width="1024" height="1024" xmlns:v="https://vecta.io/nano"><path d="M511.211 485.498c26.415 0 52.058-4.896 69.05-12.951 9.886-4.58 13.13-11.213 13.13-19.742 0-20.847-11.74-39.168-31.822-50.381l-.772-3.79c-1.236-5.528 1.39-9.16 8.033-11.529l10.504-3.948c14.83-4.58 7.569-27.323-7.724-21.953l-12.203 5.054c-13.439 4.896-20.545 14.372-20.854 27.165-8.342-2.053-17.456-3.001-27.342-3.001-9.732 0-18.846.948-27.342 3.001-.154-12.793-7.26-22.269-20.7-27.165l-12.203-5.054c-15.293-5.37-22.553 17.373-7.724 21.953l10.504 3.948c6.642 2.369 9.268 6.002 8.033 11.529l-.927 3.79c-19.927 11.213-31.667 29.534-31.667 50.381 0 8.528 3.244 15.162 13.13 19.742 16.992 8.055 42.635 12.951 68.896 12.951z"/></svg>